<svg id="visual" viewBox="0 0 900 600" width="900" height="600" xmlns="http://www.w3.org/2000/svg" xmlns:xlink="http://www.w3.org/1999/xlink" version="1.1"><rect x="0" y="0" width="900" height="600" fill="#cdb7b7"></rect><defs><linearGradient id="grad1_0" x1="33.3%" y1="100%" x2="100%" y2="0%"><stop offset="20%" stop-color="#cdb7b7" stop-opacity="1"></stop><stop offset="80%" stop-color="#cdb7b7" stop-opacity="1"></stop></linearGradient></defs><defs><linearGradient id="grad2_0" x1="0%" y1="100%" x2="66.7%" y2="0%"><stop offset="20%" stop-color="#cdb7b7" stop-opacity="1"></stop><stop offset="80%" stop-color="#cdb7b7" stop-opacity="1"></stop></linearGradient></defs><g transform="translate(900, 600)"><path d="M-270.4 0C-238 -32.4 -205.5 -64.8 -187.1 -108C-168.6 -151.2 -164.1 -205.3 -135.2 -234.2C-106.4 -263.1 -53.2 -266.7 0 -270.4L0 0Z" fill="#ed5600"></path></g><g transform="translate(0, 0)"><path d="M270.4 0C236.1 31.3 201.8 62.6 183.6 106C165.3 149.4 163.1 204.8 135.2 234.2C107.3 263.6 53.6 267 0 270.4L0 0Z" fill="#ed5600"></path></g></svg>