<svg id="visual" viewBox="0 0 900 600" width="900" height="600" xmlns="http://www.w3.org/2000/svg" xmlns:xlink="http://www.w3.org/1999/xlink" version="1.1"><rect x="0" y="0" width="900" height="600" fill="#FFF6F2"></rect><path d="M0 390L21.5 388.2C43 386.3 86 382.7 128.8 380.3C171.7 378 214.3 377 257.2 384.8C300 392.7 343 409.3 385.8 416.7C428.7 424 471.3 422 514.2 414.2C557 406.3 600 392.7 642.8 383.8C685.7 375 728.3 371 771.2 379.5C814 388 857 409 878.5 419.5L900 430L900 601L878.5 601C857 601 814 601 771.2 601C728.3 601 685.7 601 642.8 601C600 601 557 601 514.2 601C471.3 601 428.7 601 385.8 601C343 601 300 601 257.2 601C214.3 601 171.7 601 128.8 601C86 601 43 601 21.5 601L0 601Z" fill="#ff7c00"></path><path d="M0 452L21.5 445.7C43 439.3 86 426.7 128.8 427.5C171.7 428.3 214.3 442.7 257.2 450.5C300 458.3 343 459.7 385.8 455.7C428.7 451.7 471.3 442.3 514.2 441C557 439.7 600 446.3 642.8 448.5C685.7 450.7 728.3 448.3 771.2 444.8C814 441.3 857 436.7 878.5 434.3L900 432L900 601L878.5 601C857 601 814 601 771.2 601C728.3 601 685.7 601 642.8 601C600 601 557 601 514.2 601C471.3 601 428.7 601 385.8 601C343 601 300 601 257.2 601C214.3 601 171.7 601 128.8 601C86 601 43 601 21.5 601L0 601Z" fill="#d27200"></path><path d="M0 452L21.5 459.8C43 467.7 86 483.3 128.8 484.5C171.7 485.7 214.3 472.3 257.2 467.5C300 462.7 343 466.3 385.8 465C428.7 463.7 471.3 457.3 514.2 460.8C557 464.3 600 477.7 642.8 484C685.7 490.3 728.3 489.7 771.2 490.7C814 491.7 857 494.3 878.5 495.7L900 497L900 601L878.5 601C857 601 814 601 771.2 601C728.3 601 685.7 601 642.8 601C600 601 557 601 514.2 601C471.3 601 428.7 601 385.8 601C343 601 300 601 257.2 601C214.3 601 171.7 601 128.8 601C86 601 43 601 21.5 601L0 601Z" fill="#a86606"></path><path d="M0 526L21.5 522.8C43 519.7 86 513.3 128.8 514.2C171.7 515 214.3 523 257.2 520C300 517 343 503 385.8 496C428.7 489 471.3 489 514.2 489.3C557 489.7 600 490.3 642.8 490.8C685.7 491.3 728.3 491.7 771.2 498.7C814 505.7 857 519.3 878.5 526.2L900 533L900 601L878.5 601C857 601 814 601 771.2 601C728.3 601 685.7 601 642.8 601C600 601 557 601 514.2 601C471.3 601 428.7 601 385.8 601C343 601 300 601 257.2 601C214.3 601 171.7 601 128.8 601C86 601 43 601 21.5 601L0 601Z" fill="#825810"></path><path d="M0 539L21.5 543.2C43 547.3 86 555.7 128.8 559.2C171.7 562.7 214.3 561.3 257.2 557.3C300 553.3 343 546.7 385.8 545.5C428.7 544.3 471.3 548.7 514.2 549.7C557 550.7 600 548.3 642.8 544.7C685.7 541 728.3 536 771.2 536.3C814 536.7 857 542.3 878.5 545.2L900 548L900 601L878.5 601C857 601 814 601 771.2 601C728.3 601 685.7 601 642.8 601C600 601 557 601 514.2 601C471.3 601 428.7 601 385.8 601C343 601 300 601 257.2 601C214.3 601 171.7 601 128.8 601C86 601 43 601 21.5 601L0 601Z" fill="#614817"></path></svg>